<?xml version="1.0" encoding="utf-8"?>
<!-- Generator: Adobe Illustrator 15.1.0, SVG Export Plug-In . SVG Version: 6.00 Build 0)  -->
<!DOCTYPE svg PUBLIC "-//W3C//DTD SVG 1.1//EN" "http://www.w3.org/Graphics/SVG/1.1/DTD/svg11.dtd">
<svg version="1.1" id="Layer_1" xmlns="http://www.w3.org/2000/svg" xmlns:xlink="http://www.w3.org/1999/xlink" x="0px" y="0px"
	 width="612px" height="792px" viewBox="0 0 612 792" enable-background="new 0 0 612 792" xml:space="preserve">
<path fill-rule="evenodd" clip-rule="evenodd" stroke="#000000" stroke-width="2.9999" stroke-linecap="round" stroke-linejoin="round" stroke-miterlimit="22.9256" d="
	M352.945,36.5l9.535,182.557c1.398,26.755-18.717,49.336-44.249,54.75v106.588c0,112.499,28.528,276.548,28.528,335.846
	c0,22.235-18.024,40.26-40.26,40.26s-40.26-18.024-40.26-40.26c0-58.857,28.528-222.481,28.528-334.642V273.808
	c-25.508-5.41-45.531-27.984-44.26-54.751c2.89-60.852,5.779-121.705,8.669-182.557c3.413,0,6.825,0,10.237,0l1.762,156.37
	c0.062,5.462,3.357,9.933,7.46,9.933l0,0c4.103,0,7.398-4.472,7.459-9.933c0.587-52.124,1.175-104.247,1.762-156.37
	c3.141,0,6.281,0,9.422,0l1.762,156.37c0.061,5.462,3.356,9.933,7.46,9.933l0,0c4.102,0,7.399-4.472,7.459-9.933
	c0.587-52.124,1.175-104.247,1.762-156.37c3.141,0,6.281,0,9.422,0l1.762,156.37c0.061,5.462,3.355,9.933,7.459,9.933l0,0
	c4.104,0,7.398-4.472,7.46-9.933c0.587-52.124,1.174-104.247,1.761-156.37C346.705,36.5,349.825,36.5,352.945,36.5z"/>
</svg>
